{"scene":0,"scenes":[{"nodes":[0],"extras":{"file_path":"C:\\Users\\Administrator\\Documents\\ShapeShifter\\extracted\\scene.gltf","file_name":"scene.gltf"}}],"asset":{"version":"2.0","generator":"https://github.com/mikedh/trimesh"},"accessors":[{"componentType":5125,"type":"SCALAR","bufferView":0,"count":72,"max":[39],"min":[0]},{"componentType":5126,"type":"VEC3","byteOffset":0,"bufferView":1,"count":40,"max":[0.843549370765686,3.261827230453491,5.559664726257324],"min":[-0.843549370765686,-3.1680750846862793,-5.76753044128418]},{"componentType":5126,"type":"VEC2","byteOffset":0,"bufferView":3,"count":40,"max":[1.9016871452331543,0.7676990032196045],"min":[0.00390625,0.00390625]},{"componentType":5126,"count":40,"type":"VEC3","byteOffset":0,"bufferView":4,"max":[1.0,0.9502848386764526,1.0],"min":[-1.0,-0.9659258127212524,-0.9659262299537659]}],"meshes":[{"name":"SM_Wep_1911_Mag_Empty_M_45Pistol_0","extras":{"units":"meters","from_gltf_primitive":false},"primitives":[{"attributes":{"POSITION":1,"TEXCOORD_0":2,"NORMAL":3},"indices":0,"mode":4,"material":0}]}],"images":[{"bufferView":2,"mimeType":"image/png"}],"textures":[{"source":0}],"materials":[{"pbrMetallicRoughness":{"baseColorTexture":{"index":0},"metallicFactor":0.0},"name":"M_45Pistol","doubleSided":false}],"nodes":[{"name":"world","children":[1]},{"name":"Sketchfab_model","children":[2],"matrix":[1.0,0.0,0.0,0.0,0.0,2.220446049250313e-16,-1.0,0.0,0.0,1.0,2.220446049250313e-16,0.0,0.0,0.0,0.0,1.0]},{"name":"03ec7a13e48041fa83d98f4f652dc74b.fbx","children":[3],"matrix":[0.009999999776482582,0.0,0.0,0.0,0.0,0.0,0.009999999776482582,0.0,0.0,-0.009999999776482582,0.0,0.0,0.0,0.0,0.0,1.0]},{"name":"RootNode","children":[4]},{"name":"SM_Wep_1911_Mag_Empty","children":[5],"matrix":[1.0,0.0,0.0,0.0,0.0,-1.6292067939183141e-07,-0.9999999999999868,0.0,0.0,0.9999999999999868,-1.6292067939183141e-07,0.0,0.0,0.0,0.0,1.0]},{"name":"SM_Wep_1911_Mag_Empty_M_45Pistol_0","mesh":0}],"buffers":[{"uri":"gltf_buffer_0.bin","byteLength":288},{"uri":"gltf_buffer_1.bin","byteLength":480},{"uri":"gltf_buffer_2.bin","byteLength":61776},{"uri":"gltf_buffer_3.bin","byteLength":320},{"uri":"gltf_buffer_4.bin","byteLength":480}],"bufferViews":[{"buffer":0,"byteOffset":0,"byteLength":288},{"buffer":1,"byteOffset":0,"byteLength":480},{"buffer":2,"byteOffset":0,"byteLength":61776},{"buffer":3,"byteOffset":0,"byteLength":320},{"buffer":4,"byteOffset":0,"byteLength":480}]}